<svg xmlns="http://www.w3.org/2000/svg" viewBox="0 0 300 300" role="img" aria-label="Guillochť security rosette">
  <defs>
    <radialGradient id="rosetteFade" cx="50%" cy="50%" r="50%">
      <stop offset="0%" stop-color="#d4af37" stop-opacity="0.9" />
      <stop offset="70%" stop-color="#b8860b" stop-opacity="0.55" />
      <stop offset="100%" stop-color="#9c7a1e" stop-opacity="0" />
    </radialGradient>
  </defs>
  <g transform="translate(150,150)" fill="none" stroke="url(#rosetteFade)" stroke-width="0.6">
    <g>
      <ellipse rx="120" ry="44" transform="rotate(0)" />
      <ellipse rx="120" ry="44" transform="rotate(15)" />
      <ellipse rx="120" ry="44" transform="rotate(30)" />
      <ellipse rx="120" ry="44" transform="rotate(45)" />
      <ellipse rx="120" ry="44" transform="rotate(60)" />
      <ellipse rx="120" ry="44" transform="rotate(75)" />
      <ellipse rx="120" ry="44" transform="rotate(90)" />
      <ellipse rx="120" ry="44" transform="rotate(105)" />
      <ellipse rx="120" ry="44" transform="rotate(120)" />
      <ellipse rx="120" ry="44" transform="rotate(135)" />
      <ellipse rx="120" ry="44" transform="rotate(150)" />
      <ellipse rx="120" ry="44" transform="rotate(165)" />
    </g>
    <g stroke-width="0.5">
      <ellipse rx="96" ry="30" transform="rotate(7.5)" />
      <ellipse rx="96" ry="30" transform="rotate(22.5)" />
      <ellipse rx="96" ry="30" transform="rotate(37.5)" />
      <ellipse rx="96" ry="30" transform="rotate(52.5)" />
      <ellipse rx="96" ry="30" transform="rotate(67.5)" />
      <ellipse rx="96" ry="30" transform="rotate(82.5)" />
      <ellipse rx="96" ry="30" transform="rotate(97.5)" />
      <ellipse rx="96" ry="30" transform="rotate(112.5)" />
      <ellipse rx="96" ry="30" transform="rotate(127.5)" />
      <ellipse rx="96" ry="30" transform="rotate(142.5)" />
      <ellipse rx="96" ry="30" transform="rotate(157.5)" />
      <ellipse rx="96" ry="30" transform="rotate(172.5)" />
    </g>
    <circle r="128" stroke="#b8860b" stroke-opacity="0.5" stroke-width="0.8" />
    <circle r="60" stroke="#22345f" stroke-opacity="0.4" stroke-width="0.8" />
    <circle r="6" fill="#d4af37" stroke="none" />
  </g>
</svg>
